<svg xmlns="http://www.w3.org/2000/svg" width="36" height="150" viewBox="0 0 36 150">
<rect x="2" y="3" width="34" height="147" rx="2" fill="#000" fill-opacity="0.35"/>
<rect width="34" height="146" rx="2" fill="#3b2b1f"/>
<rect x="5" y="6" width="12" height="18" fill="#1d140d"/>
<circle cx="11" cy="11" r="2.6" fill="#d9c89a"/><circle cx="11" cy="11" r="1" fill="#8a7a52"/>
<rect x="19" y="6" width="12" height="18" fill="#1d140d"/>
<circle cx="25" cy="11" r="2.6" fill="#d9c89a"/><circle cx="25" cy="11" r="1" fill="#8a7a52"/>
<circle cx="25" cy="16" r="2.6" fill="#d9c89a"/><circle cx="25" cy="16" r="1" fill="#8a7a52"/>
<rect x="5" y="26" width="12" height="18" fill="#1d140d"/>
<circle cx="11" cy="31" r="2.6" fill="#d9c89a"/><circle cx="11" cy="31" r="1" fill="#8a7a52"/>
<rect x="19" y="26" width="12" height="18" fill="#1d140d"/>
<circle cx="25" cy="31" r="2.6" fill="#d9c89a"/><circle cx="25" cy="31" r="1" fill="#8a7a52"/>
<circle cx="25" cy="36" r="2.6" fill="#d9c89a"/><circle cx="25" cy="36" r="1" fill="#8a7a52"/>
<rect x="5" y="46" width="12" height="18" fill="#1d140d"/>
<circle cx="11" cy="51" r="2.6" fill="#d9c89a"/><circle cx="11" cy="51" r="1" fill="#8a7a52"/>
<rect x="19" y="46" width="12" height="18" fill="#1d140d"/>
<circle cx="25" cy="51" r="2.6" fill="#d9c89a"/><circle cx="25" cy="51" r="1" fill="#8a7a52"/>
<circle cx="25" cy="56" r="2.6" fill="#d9c89a"/><circle cx="25" cy="56" r="1" fill="#8a7a52"/>
<rect x="5" y="66" width="12" height="18" fill="#1d140d"/>
<circle cx="11" cy="71" r="2.6" fill="#d9c89a"/><circle cx="11" cy="71" r="1" fill="#8a7a52"/>
<rect x="19" y="66" width="12" height="18" fill="#1d140d"/>
<circle cx="25" cy="71" r="2.6" fill="#d9c89a"/><circle cx="25" cy="71" r="1" fill="#8a7a52"/>
<circle cx="25" cy="76" r="2.6" fill="#d9c89a"/><circle cx="25" cy="76" r="1" fill="#8a7a52"/>
<rect x="5" y="86" width="12" height="18" fill="#1d140d"/>
<circle cx="11" cy="91" r="2.6" fill="#d9c89a"/><circle cx="11" cy="91" r="1" fill="#8a7a52"/>
<rect x="19" y="86" width="12" height="18" fill="#1d140d"/>
<circle cx="25" cy="91" r="2.6" fill="#d9c89a"/><circle cx="25" cy="91" r="1" fill="#8a7a52"/>
<circle cx="25" cy="96" r="2.6" fill="#d9c89a"/><circle cx="25" cy="96" r="1" fill="#8a7a52"/>
<rect x="5" y="106" width="12" height="18" fill="#1d140d"/>
<circle cx="11" cy="111" r="2.6" fill="#d9c89a"/><circle cx="11" cy="111" r="1" fill="#8a7a52"/>
<rect x="19" y="106" width="12" height="18" fill="#1d140d"/>
<circle cx="25" cy="111" r="2.6" fill="#d9c89a"/><circle cx="25" cy="111" r="1" fill="#8a7a52"/>
<circle cx="25" cy="116" r="2.6" fill="#d9c89a"/><circle cx="25" cy="116" r="1" fill="#8a7a52"/>
<rect x="5" y="126" width="12" height="18" fill="#1d140d"/>
<circle cx="11" cy="131" r="2.6" fill="#d9c89a"/><circle cx="11" cy="131" r="1" fill="#8a7a52"/>
<rect x="19" y="126" width="12" height="18" fill="#1d140d"/>
<circle cx="25" cy="131" r="2.6" fill="#d9c89a"/><circle cx="25" cy="131" r="1" fill="#8a7a52"/>
<circle cx="25" cy="136" r="2.6" fill="#d9c89a"/><circle cx="25" cy="136" r="1" fill="#8a7a52"/>
</svg>
